# xmcd
#
# Track frame offsets: 
#        150
#        22015
#        37486
#        53740
#        81199
#        98582
#        114875
#        128980
#        150271
#        165278
#        185047
#        203541
#
# Disc length: 2893 seconds
#
# Revision: 0
# Processed by: cddbd v1.5.2PL0 Copyright (c) Steve Scherf et al.
# Submitted via: ExactAudioCopy v1.0b4
#
DISCID=900b4b0c
DTITLE=Kipori 'Baby Wolf' Woods - Blues Man From Down South
DYEAR=1900
DGENRE=Blues
TTITLE0=I'm A Blues Man From Way Down South
TTITLE1=Just Like King Kong
TTITLE2=Somebody Is Sleeping In Your Bed
TTITLE3=Wife Time Woman
TTITLE4=All Because Of You
TTITLE5=The Thrill Is Gone
TTITLE6=Smokin' That Fire
TTITLE7=Stormy Monday
TTITLE8=Like An Alien
TTITLE9=Bye Bye Baby
TTITLE10=Don't Let Your Left Hand Know
TTITLE11=You Are Far More Beautiful
EXTD=
EXTT0=
EXTT1=
EXTT2=
EXTT3=
EXTT4=
EXTT5=
EXTT6=
EXTT7=
EXTT8=
EXTT9=
EXTT10=
EXTT11=
PLAYORDER=
